<svg xmlns="http://www.w3.org/2000/svg" xmlns:xlink="http://www.w3.org/1999/xlink" width="500" zoomAndPan="magnify" viewBox="0 0 375 374.999991" height="500" preserveAspectRatio="xMidYMid meet" version="1.0"><defs><clipPath id="d1dff320da"><path d="M 159 1.023438 L 216 1.023438 L 216 215 L 159 215 Z M 159 1.023438 " clip-rule="nonzero"/></clipPath><clipPath id="5e4c1923f0"><path d="M 0 125 L 375 125 L 375 373.773438 L 0 373.773438 Z M 0 125 " clip-rule="nonzero"/></clipPath><clipPath id="c2e91f82b1"><path d="M 182 1.023438 L 193 1.023438 L 193 187 L 182 187 Z M 182 1.023438 " clip-rule="nonzero"/></clipPath></defs><g clip-path="url(#d1dff320da)"><path fill="#737373" d="M 205.203125 189.035156 C 204.425781 196.03125 199.574219 201.820312 193.039062 203.867188 C 191.382812 204.382812 189.625 204.664062 187.800781 204.664062 C 187.710938 204.664062 187.628906 204.644531 187.539062 204.644531 C 187.445312 204.644531 187.363281 204.664062 187.273438 204.664062 C 185.449219 204.664062 183.691406 204.382812 182.035156 203.867188 C 175.5 201.820312 170.648438 196.03125 169.871094 189.035156 L 169.707031 189.035156 L 169.707031 1.058594 C 166.21875 1.382812 162.75 1.78125 159.320312 2.296875 L 159.320312 187.039062 L 159.417969 187.039062 C 159.417969 187.0625 159.410156 187.082031 159.410156 187.101562 C 159.410156 195.808594 163.429688 203.589844 169.707031 208.703125 C 173.210938 211.558594 177.425781 213.574219 182.035156 214.453125 C 183.734375 214.777344 185.480469 214.964844 187.273438 214.964844 C 187.363281 214.964844 187.445312 214.953125 187.539062 214.953125 C 187.628906 214.953125 187.710938 214.964844 187.800781 214.964844 C 189.59375 214.964844 191.339844 214.777344 193.039062 214.453125 C 197.648438 213.574219 201.863281 211.558594 205.367188 208.703125 C 211.644531 203.589844 215.664062 195.808594 215.664062 187.101562 C 215.664062 187.082031 215.660156 187.0625 215.660156 187.039062 L 215.757812 187.039062 L 215.757812 2.296875 C 212.324219 1.78125 208.855469 1.382812 205.367188 1.058594 L 205.367188 189.035156 L 205.203125 189.035156 " fill-opacity="1" fill-rule="nonzero"/></g><path fill="#737373" d="M 250.734375 188.371094 C 250.464844 201.855469 245.96875 214.320312 238.472656 224.457031 C 235.460938 228.535156 231.972656 232.230469 228.085938 235.472656 C 224.320312 238.613281 220.1875 241.316406 215.757812 243.523438 C 212.449219 245.167969 208.976562 246.527344 205.367188 247.574219 C 201.402344 248.730469 197.28125 249.503906 193.039062 249.851562 C 191.308594 249.996094 189.566406 250.089844 187.800781 250.089844 C 187.710938 250.089844 187.628906 250.078125 187.539062 250.074219 C 187.445312 250.078125 187.363281 250.089844 187.273438 250.089844 C 185.507812 250.089844 183.765625 249.996094 182.035156 249.851562 C 177.792969 249.503906 173.671875 248.730469 169.707031 247.574219 C 166.097656 246.527344 162.625 245.167969 159.320312 243.523438 C 154.886719 241.316406 150.753906 238.613281 146.988281 235.472656 C 143.101562 232.230469 139.613281 228.535156 136.601562 224.457031 C 129.105469 214.320312 124.609375 201.855469 124.339844 188.371094 L 124.269531 188.371094 L 124.269531 11.125 C 120.757812 12.378906 117.292969 13.726562 113.882812 15.1875 L 113.882812 187.707031 L 114.011719 187.707031 C 114.117188 201.121094 117.84375 213.691406 124.269531 224.476562 C 127.671875 230.1875 131.828125 235.394531 136.601562 239.96875 C 139.804688 243.039062 143.273438 245.824219 146.988281 248.277344 C 150.859375 250.835938 154.984375 253.039062 159.320312 254.835938 C 162.664062 256.21875 166.132812 257.363281 169.707031 258.246094 C 173.699219 259.230469 177.820312 259.878906 182.035156 260.179688 C 183.769531 260.304688 185.511719 260.386719 187.273438 260.386719 C 187.363281 260.386719 187.445312 260.378906 187.539062 260.378906 C 187.628906 260.378906 187.710938 260.386719 187.800781 260.386719 C 189.5625 260.386719 191.304688 260.304688 193.039062 260.179688 C 197.253906 259.878906 201.375 259.230469 205.367188 258.246094 C 208.941406 257.363281 212.410156 256.21875 215.757812 254.835938 C 220.089844 253.039062 224.214844 250.835938 228.085938 248.277344 C 231.800781 245.824219 235.273438 243.039062 238.472656 239.96875 C 243.246094 235.394531 247.402344 230.1875 250.804688 224.476562 C 257.230469 213.691406 260.957031 201.121094 261.0625 187.707031 L 261.191406 187.707031 L 261.191406 15.1875 C 257.78125 13.726562 254.316406 12.378906 250.804688 11.125 L 250.804688 188.371094 L 250.734375 188.371094 " fill-opacity="1" fill-rule="nonzero"/><path fill="#737373" d="M 228.007812 188.371094 C 227.667969 199.210938 223.050781 208.980469 215.757812 216.027344 C 212.714844 218.96875 209.207031 221.414062 205.367188 223.285156 C 201.550781 225.144531 197.410156 226.421875 193.039062 226.996094 C 191.320312 227.21875 189.582031 227.375 187.800781 227.375 C 187.710938 227.375 187.628906 227.367188 187.539062 227.367188 C 187.445312 227.367188 187.363281 227.375 187.273438 227.375 C 185.496094 227.375 183.753906 227.21875 182.035156 226.996094 C 177.664062 226.421875 173.523438 225.144531 169.707031 223.285156 C 165.867188 221.414062 162.359375 218.96875 159.320312 216.027344 C 152.027344 208.980469 147.40625 199.210938 147.066406 188.371094 L 146.988281 188.371094 L 146.988281 4.609375 C 143.488281 5.378906 140.027344 6.253906 136.601562 7.214844 L 136.601562 187.039062 L 136.703125 187.039062 C 136.703125 187.0625 136.699219 187.082031 136.699219 187.101562 C 136.699219 198.539062 140.5625 209.066406 146.988281 217.546875 C 150.425781 222.082031 154.570312 226.050781 159.320312 229.210938 C 162.535156 231.355469 166.027344 233.097656 169.707031 234.464844 C 173.617188 235.921875 177.738281 236.960938 182.035156 237.402344 C 183.757812 237.582031 185.503906 237.675781 187.273438 237.675781 C 187.363281 237.675781 187.445312 237.664062 187.539062 237.664062 C 187.628906 237.664062 187.710938 237.675781 187.800781 237.675781 C 189.570312 237.675781 191.316406 237.582031 193.039062 237.402344 C 197.335938 236.960938 201.457031 235.921875 205.367188 234.464844 C 209.046875 233.097656 212.539062 231.355469 215.757812 229.210938 C 220.503906 226.050781 224.648438 222.082031 228.085938 217.546875 C 234.511719 209.066406 238.375 198.539062 238.375 187.101562 C 238.375 187.082031 238.371094 187.0625 238.371094 187.039062 L 238.472656 187.039062 L 238.472656 7.214844 C 235.046875 6.253906 231.585938 5.378906 228.085938 4.609375 L 228.085938 188.371094 L 228.007812 188.371094 " fill-opacity="1" fill-rule="nonzero"/><path fill="#737373" d="M 273.453125 188.371094 C 273.222656 204.050781 268.789062 218.730469 261.191406 231.300781 C 258.195312 236.253906 254.710938 240.878906 250.804688 245.117188 C 247.0625 249.175781 242.929688 252.875 238.472656 256.15625 C 235.179688 258.578125 231.710938 260.769531 228.085938 262.710938 C 224.152344 264.816406 220.027344 266.613281 215.757812 268.09375 C 212.378906 269.261719 208.917969 270.238281 205.367188 270.980469 C 201.355469 271.820312 197.234375 272.371094 193.039062 272.625 C 191.304688 272.730469 189.558594 272.796875 187.800781 272.796875 C 187.710938 272.796875 187.625 272.789062 187.539062 272.789062 C 187.449219 272.789062 187.363281 272.796875 187.273438 272.796875 C 185.515625 272.796875 183.773438 272.730469 182.035156 272.625 C 177.839844 272.371094 173.71875 271.820312 169.707031 270.980469 C 166.15625 270.238281 162.695312 269.261719 159.320312 268.09375 C 155.046875 266.613281 150.921875 264.816406 146.988281 262.710938 C 143.363281 260.769531 139.894531 258.578125 136.601562 256.15625 C 132.144531 252.875 128.011719 249.175781 124.269531 245.117188 C 120.367188 240.878906 116.878906 236.253906 113.882812 231.300781 C 106.285156 218.730469 101.851562 204.050781 101.621094 188.371094 L 101.550781 188.371094 L 101.550781 21.042969 C 98.027344 22.863281 94.550781 24.769531 91.167969 26.804688 L 91.167969 186.375 L 91.296875 186.375 C 91.296875 186.621094 91.277344 186.859375 91.277344 187.101562 C 91.277344 202.605469 94.996094 217.253906 101.550781 230.230469 C 104.941406 236.9375 109.082031 243.195312 113.882812 248.890625 C 117.070312 252.667969 120.542969 256.191406 124.269531 259.4375 C 128.125 262.800781 132.242188 265.863281 136.601562 268.585938 C 139.929688 270.664062 143.398438 272.539062 146.988281 274.203125 C 150.960938 276.050781 155.074219 277.640625 159.320312 278.933594 C 162.707031 279.96875 166.171875 280.804688 169.707031 281.460938 C 173.734375 282.210938 177.847656 282.726562 182.035156 282.949219 C 183.773438 283.046875 185.515625 283.101562 187.273438 283.101562 C 187.363281 283.101562 187.449219 283.089844 187.539062 283.089844 C 187.625 283.089844 187.710938 283.101562 187.800781 283.101562 C 189.558594 283.101562 191.300781 283.046875 193.039062 282.949219 C 197.226562 282.726562 201.339844 282.210938 205.367188 281.460938 C 208.902344 280.804688 212.371094 279.96875 215.757812 278.933594 C 220 277.640625 224.113281 276.050781 228.085938 274.203125 C 231.675781 272.539062 235.144531 270.664062 238.472656 268.585938 C 242.832031 265.863281 246.953125 262.800781 250.804688 259.4375 C 254.53125 256.191406 258.003906 252.667969 261.191406 248.890625 C 265.992188 243.195312 270.132812 236.9375 273.523438 230.230469 C 280.078125 217.253906 283.796875 202.605469 283.796875 187.101562 C 283.796875 186.859375 283.777344 186.621094 283.777344 186.375 L 283.90625 186.375 L 283.90625 26.804688 C 280.523438 24.769531 277.046875 22.863281 273.523438 21.042969 L 273.523438 188.371094 L 273.453125 188.371094 " fill-opacity="1" fill-rule="nonzero"/><path fill="#737373" d="M 341.597656 188.371094 C 341.429688 209.261719 337.089844 229.179688 329.34375 247.316406 C 326.371094 254.28125 322.890625 260.984375 318.960938 267.382812 C 315.242188 273.4375 311.121094 279.21875 306.625 284.683594 C 303.355469 288.660156 299.886719 292.46875 296.242188 296.09375 C 292.335938 299.980469 288.210938 303.636719 283.90625 307.085938 C 280.550781 309.78125 277.101562 312.363281 273.523438 314.769531 C 269.539062 317.453125 265.425781 319.957031 261.191406 322.269531 C 257.808594 324.109375 254.332031 325.792969 250.804688 327.382812 C 246.78125 329.199219 242.667969 330.847656 238.472656 332.316406 C 235.066406 333.511719 231.601562 334.589844 228.085938 335.546875 C 224.039062 336.644531 219.925781 337.570312 215.757812 338.339844 C 212.328125 338.972656 208.867188 339.5 205.367188 339.898438 C 201.304688 340.363281 197.191406 340.660156 193.039062 340.800781 C 191.296875 340.859375 189.558594 340.933594 187.800781 340.933594 C 187.710938 340.933594 187.625 340.925781 187.539062 340.925781 C 187.449219 340.925781 187.363281 340.933594 187.273438 340.933594 C 185.515625 340.933594 183.777344 340.859375 182.035156 340.800781 C 177.882812 340.660156 173.769531 340.363281 169.707031 339.898438 C 166.207031 339.5 162.746094 338.972656 159.320312 338.339844 C 155.148438 337.570312 151.035156 336.644531 146.988281 335.546875 C 143.472656 334.589844 140.007812 333.511719 136.601562 332.316406 C 132.40625 330.847656 128.292969 329.199219 124.269531 327.382812 C 120.742188 325.792969 117.265625 324.109375 113.882812 322.269531 C 109.648438 319.957031 105.535156 317.453125 101.550781 314.769531 C 97.972656 312.363281 94.523438 309.78125 91.167969 307.085938 C 86.863281 303.636719 82.738281 299.980469 78.832031 296.09375 C 75.1875 292.46875 71.71875 288.660156 68.449219 284.683594 C 63.953125 279.21875 59.832031 273.4375 56.113281 267.382812 C 52.183594 260.984375 48.703125 254.28125 45.730469 247.316406 C 37.984375 229.179688 33.648438 209.261719 33.476562 188.371094 L 33.394531 188.371094 L 33.394531 81.0625 C 29.65625 86.476562 26.171875 92.078125 23.011719 97.886719 L 23.011719 186.375 L 23.160156 186.375 C 23.160156 186.359375 23.160156 186.347656 23.160156 186.332031 C 23.160156 186.589844 23.144531 186.84375 23.144531 187.101562 C 23.144531 207.167969 26.777344 226.394531 33.394531 244.183594 C 36.757812 253.207031 40.90625 261.84375 45.730469 270.042969 C 48.90625 275.445312 52.359375 280.664062 56.113281 285.652344 C 59.9375 290.726562 64.074219 295.550781 68.449219 300.144531 C 71.761719 303.628906 75.226562 306.972656 78.832031 310.15625 C 82.78125 313.640625 86.894531 316.933594 91.167969 320.03125 C 94.539062 322.472656 97.992188 324.8125 101.550781 327.003906 C 105.550781 329.460938 109.671875 331.730469 113.882812 333.847656 C 117.285156 335.554688 120.738281 337.164062 124.269531 338.640625 C 128.300781 340.320312 132.417969 341.828125 136.601562 343.191406 C 140.019531 344.300781 143.476562 345.328125 146.988281 346.214844 C 151.035156 347.242188 155.160156 348.085938 159.320312 348.804688 C 162.75 349.394531 166.207031 349.90625 169.707031 350.28125 C 173.773438 350.71875 177.890625 350.96875 182.035156 351.101562 C 183.78125 351.15625 185.515625 351.234375 187.273438 351.234375 C 187.363281 351.234375 187.449219 351.226562 187.539062 351.226562 C 187.625 351.226562 187.710938 351.234375 187.800781 351.234375 C 189.558594 351.234375 191.292969 351.15625 193.039062 351.101562 C 197.183594 350.96875 201.304688 350.71875 205.367188 350.28125 C 208.867188 349.90625 212.324219 349.394531 215.757812 348.804688 C 219.917969 348.085938 224.039062 347.242188 228.085938 346.214844 C 231.597656 345.328125 235.054688 344.300781 238.472656 343.191406 C 242.65625 341.828125 246.773438 340.320312 250.804688 338.640625 C 254.335938 337.164062 257.789062 335.554688 261.191406 333.847656 C 265.402344 331.730469 269.523438 329.460938 273.523438 327.003906 C 277.082031 324.8125 280.535156 322.472656 283.90625 320.03125 C 288.179688 316.933594 292.292969 313.640625 296.242188 310.15625 C 299.847656 306.972656 303.3125 303.628906 306.625 300.144531 C 311 295.550781 315.136719 290.726562 318.960938 285.652344 C 322.714844 280.664062 326.167969 275.445312 329.34375 270.042969 C 334.167969 261.84375 338.316406 253.207031 341.679688 244.183594 C 348.296875 226.394531 351.929688 207.167969 351.929688 187.101562 C 351.929688 186.84375 351.917969 186.589844 351.914062 186.332031 C 351.914062 186.347656 351.917969 186.359375 351.917969 186.375 L 352.0625 186.375 L 352.0625 97.886719 C 348.902344 92.078125 345.417969 86.476562 341.679688 81.0625 L 341.679688 188.371094 L 341.597656 188.371094 " fill-opacity="1" fill-rule="nonzero"/><g clip-path="url(#5e4c1923f0)"><path fill="#737373" d="M 364.3125 188.371094 C 364.152344 210.691406 359.808594 232.023438 352.0625 251.660156 C 349.089844 259.203125 345.621094 266.492188 341.679688 273.488281 C 337.957031 280.089844 333.855469 286.449219 329.34375 292.492188 C 326.078125 296.867188 322.609375 301.078125 318.960938 305.128906 C 315.054688 309.464844 310.941406 313.617188 306.625 317.550781 C 303.289062 320.59375 299.804688 323.480469 296.242188 326.261719 C 292.261719 329.371094 288.152344 332.3125 283.90625 335.078125 C 280.523438 337.285156 277.0625 339.386719 273.523438 341.363281 C 269.507812 343.601562 265.390625 345.675781 261.191406 347.601562 C 257.785156 349.167969 254.324219 350.628906 250.804688 351.980469 C 246.761719 353.53125 242.652344 354.945312 238.472656 356.199219 C 235.054688 357.226562 231.585938 358.128906 228.085938 358.953125 C 224.027344 359.902344 219.917969 360.742188 215.757812 361.410156 C 212.324219 361.960938 208.863281 362.421875 205.367188 362.765625 C 201.300781 363.167969 197.179688 363.390625 193.039062 363.511719 C 191.292969 363.5625 189.558594 363.644531 187.800781 363.644531 C 187.710938 363.644531 187.625 363.640625 187.539062 363.636719 C 187.449219 363.640625 187.363281 363.644531 187.273438 363.644531 C 185.515625 363.644531 183.78125 363.5625 182.035156 363.511719 C 177.894531 363.390625 173.773438 363.167969 169.707031 362.765625 C 166.210938 362.421875 162.75 361.960938 159.320312 361.410156 C 155.15625 360.742188 151.050781 359.902344 146.988281 358.953125 C 143.488281 358.128906 140.019531 357.226562 136.601562 356.199219 C 132.421875 354.945312 128.3125 353.53125 124.269531 351.980469 C 120.75 350.628906 117.289062 349.167969 113.882812 347.601562 C 109.683594 345.675781 105.566406 343.601562 101.550781 341.363281 C 98.011719 339.386719 94.550781 337.285156 91.167969 335.078125 C 86.921875 332.3125 82.8125 329.371094 78.832031 326.261719 C 75.269531 323.480469 71.785156 320.59375 68.449219 317.550781 C 64.132812 313.617188 60.019531 309.464844 56.113281 305.128906 C 52.464844 301.078125 48.996094 296.867188 45.730469 292.492188 C 41.21875 286.449219 37.117188 280.089844 33.394531 273.488281 C 29.453125 266.492188 25.984375 259.203125 23.011719 251.660156 C 15.265625 232.023438 10.921875 210.691406 10.765625 188.371094 L 10.675781 188.371094 L 10.675781 125.917969 C 4.035156 145.09375 0.378906 165.664062 0.378906 187.105469 C 0.378906 208.539062 4.035156 229.109375 10.675781 248.289062 L 10.675781 248.007812 C 14.046875 257.746094 18.152344 267.144531 23.011719 276.078125 L 23.011719 276.320312 C 26.171875 282.128906 29.65625 287.730469 33.394531 293.144531 L 33.394531 292.917969 C 37.21875 298.457031 41.347656 303.769531 45.730469 308.859375 L 45.730469 309.074219 C 49.046875 312.917969 52.496094 316.644531 56.113281 320.207031 L 56.113281 320.011719 C 60.0625 323.910156 64.167969 327.648438 68.449219 331.183594 L 68.449219 331.367188 C 71.800781 334.132812 75.285156 336.742188 78.832031 339.273438 L 78.832031 339.113281 C 82.835938 341.972656 86.933594 344.714844 91.167969 347.261719 L 91.167969 347.402344 C 94.550781 349.441406 98.027344 351.339844 101.550781 353.164062 L 101.550781 353.035156 C 105.585938 355.128906 109.6875 357.105469 113.882812 358.910156 L 113.882812 359.023438 C 117.292969 360.480469 120.757812 361.824219 124.269531 363.082031 L 124.269531 362.988281 C 128.316406 364.441406 132.433594 365.730469 136.601562 366.90625 L 136.601562 366.988281 C 140.027344 367.949219 143.488281 368.828125 146.988281 369.597656 L 146.988281 369.523438 C 151.054688 370.421875 155.160156 371.222656 159.320312 371.847656 L 159.320312 371.910156 C 162.75 372.421875 166.21875 372.828125 169.707031 373.152344 L 169.707031 373.09375 C 173.777344 373.476562 177.894531 373.699219 182.035156 373.8125 L 182.035156 373.867188 C 183.78125 373.914062 185.515625 374 187.273438 374 C 187.363281 374 187.449219 373.992188 187.539062 373.992188 C 187.625 373.992188 187.710938 374 187.800781 374 C 189.558594 374 191.292969 373.914062 193.039062 373.867188 L 193.039062 373.8125 C 197.179688 373.699219 201.296875 373.476562 205.367188 373.09375 L 205.367188 373.152344 C 208.855469 372.828125 212.324219 372.421875 215.757812 371.910156 L 215.757812 371.847656 C 219.917969 371.222656 224.019531 370.421875 228.085938 369.523438 L 228.085938 369.597656 C 231.585938 368.828125 235.046875 367.949219 238.472656 366.988281 L 238.472656 366.90625 C 242.640625 365.730469 246.757812 364.441406 250.804688 362.988281 L 250.804688 363.082031 C 254.316406 361.824219 257.78125 360.480469 261.191406 359.023438 L 261.191406 358.910156 C 265.390625 357.105469 269.488281 355.128906 273.523438 353.035156 L 273.523438 353.164062 C 277.046875 351.339844 280.523438 349.441406 283.90625 347.402344 L 283.90625 347.261719 C 288.140625 344.714844 292.238281 341.972656 296.242188 339.113281 L 296.242188 339.273438 C 299.789062 336.742188 303.273438 334.132812 306.625 331.367188 L 306.625 331.183594 C 310.90625 327.648438 315.011719 323.910156 318.960938 320.011719 L 318.960938 320.207031 C 322.578125 316.644531 326.027344 312.917969 329.34375 309.074219 L 329.34375 308.859375 C 333.726562 303.769531 337.855469 298.457031 341.679688 292.917969 L 341.679688 293.144531 C 345.417969 287.730469 348.902344 282.128906 352.0625 276.320312 L 352.0625 276.078125 C 356.921875 267.144531 361.027344 257.746094 364.398438 248.007812 L 364.398438 248.289062 C 371.039062 229.109375 374.695312 208.539062 374.695312 187.105469 C 374.695312 165.664062 371.039062 145.09375 364.398438 125.917969 L 364.398438 188.371094 L 364.3125 188.371094 " fill-opacity="1" fill-rule="nonzero"/></g><path fill="#737373" d="M 318.882812 188.371094 C 318.699219 207.667969 314.328125 225.980469 306.625 242.445312 C 303.640625 248.828125 300.175781 254.941406 296.242188 260.71875 C 292.519531 266.179688 288.390625 271.339844 283.90625 276.167969 C 280.636719 279.703125 277.164062 283.039062 273.523438 286.191406 C 269.601562 289.589844 265.5 292.785156 261.191406 295.703125 C 257.839844 297.976562 254.371094 300.09375 250.804688 302.050781 C 246.816406 304.25 242.703125 306.25 238.472656 308.023438 C 235.082031 309.453125 231.613281 310.722656 228.085938 311.863281 C 224.058594 313.167969 219.945312 314.277344 215.757812 315.191406 C 212.339844 315.933594 208.878906 316.539062 205.367188 317.011719 C 201.3125 317.558594 197.203125 317.925781 193.039062 318.089844 C 191.300781 318.160156 189.558594 318.222656 187.800781 318.222656 C 187.710938 318.222656 187.625 318.214844 187.539062 318.214844 C 187.449219 318.214844 187.363281 318.222656 187.273438 318.222656 C 185.515625 318.222656 183.777344 318.160156 182.035156 318.089844 C 177.871094 317.925781 173.761719 317.558594 169.707031 317.011719 C 166.195312 316.539062 162.734375 315.933594 159.320312 315.191406 C 155.132812 314.277344 151.015625 313.167969 146.988281 311.863281 C 143.460938 310.722656 139.992188 309.453125 136.601562 308.023438 C 132.371094 306.25 128.257812 304.25 124.269531 302.050781 C 120.703125 300.09375 117.238281 297.976562 113.882812 295.703125 C 109.574219 292.785156 105.472656 289.589844 101.550781 286.191406 C 97.914062 283.039062 94.4375 279.703125 91.167969 276.167969 C 86.683594 271.339844 82.554688 266.179688 78.832031 260.71875 C 74.898438 254.941406 71.433594 248.828125 68.449219 242.445312 C 60.746094 225.980469 56.375 207.667969 56.191406 188.371094 L 56.113281 188.371094 L 56.113281 54 C 52.496094 57.5625 49.046875 61.289062 45.730469 65.136719 L 45.730469 187.039062 L 45.855469 187.039062 C 45.855469 186.875 45.867188 186.710938 45.867188 186.542969 C 45.867188 186.730469 45.855469 186.914062 45.855469 187.101562 C 45.855469 205.757812 49.523438 223.566406 56.113281 239.890625 C 59.484375 248.226562 63.625 256.167969 68.449219 263.636719 C 71.625 268.554688 75.082031 273.273438 78.832031 277.75 C 82.667969 282.332031 86.789062 286.660156 91.167969 290.71875 C 94.484375 293.800781 97.949219 296.722656 101.550781 299.476562 C 105.507812 302.5 109.617188 305.34375 113.882812 307.945312 C 117.25 310 120.722656 311.886719 124.269531 313.660156 C 128.277344 315.660156 132.390625 317.476562 136.601562 319.097656 C 140.003906 320.40625 143.464844 321.59375 146.988281 322.644531 C 151.027344 323.847656 155.136719 324.890625 159.320312 325.734375 C 162.734375 326.421875 166.207031 326.957031 169.707031 327.390625 C 173.765625 327.898438 177.878906 328.234375 182.035156 328.390625 C 183.777344 328.453125 185.515625 328.523438 187.273438 328.523438 C 187.363281 328.523438 187.449219 328.515625 187.539062 328.515625 C 187.625 328.515625 187.710938 328.523438 187.800781 328.523438 C 189.558594 328.523438 191.296875 328.453125 193.039062 328.390625 C 197.195312 328.234375 201.308594 327.898438 205.367188 327.390625 C 208.867188 326.957031 212.339844 326.421875 215.757812 325.734375 C 219.9375 324.890625 224.046875 323.847656 228.085938 322.644531 C 231.609375 321.59375 235.070312 320.40625 238.472656 319.097656 C 242.683594 317.476562 246.800781 315.660156 250.804688 313.660156 C 254.351562 311.886719 257.824219 310 261.191406 307.945312 C 265.460938 305.34375 269.566406 302.5 273.523438 299.476562 C 277.128906 296.722656 280.589844 293.800781 283.90625 290.71875 C 288.285156 286.660156 292.40625 282.332031 296.242188 277.75 C 299.992188 273.273438 303.449219 268.554688 306.625 263.636719 C 311.449219 256.167969 315.59375 248.226562 318.960938 239.890625 C 325.554688 223.566406 329.21875 205.757812 329.21875 187.101562 C 329.21875 186.914062 329.207031 186.730469 329.207031 186.542969 C 329.207031 186.710938 329.21875 186.875 329.21875 187.039062 L 329.34375 187.039062 L 329.34375 65.136719 C 326.027344 61.289062 322.578125 57.5625 318.960938 54 L 318.960938 188.371094 L 318.882812 188.371094 " fill-opacity="1" fill-rule="nonzero"/><path fill="#737373" d="M 296.167969 188.371094 C 295.960938 205.949219 291.5625 222.53125 283.90625 237.164062 C 280.921875 242.875 277.445312 248.289062 273.523438 253.347656 C 269.789062 258.167969 265.671875 262.675781 261.191406 266.800781 C 257.910156 269.824219 254.4375 272.632812 250.804688 275.238281 C 246.878906 278.050781 242.765625 280.617188 238.472656 282.898438 C 235.113281 284.683594 231.644531 286.289062 228.085938 287.714844 C 224.085938 289.324219 219.972656 290.710938 215.757812 291.835938 C 212.355469 292.746094 208.890625 293.488281 205.367188 294.066406 C 201.328125 294.726562 197.214844 295.179688 193.039062 295.378906 C 191.300781 295.460938 189.558594 295.511719 187.800781 295.511719 C 187.710938 295.511719 187.625 295.503906 187.539062 295.503906 C 187.449219 295.503906 187.363281 295.511719 187.273438 295.511719 C 185.515625 295.511719 183.773438 295.460938 182.035156 295.378906 C 177.859375 295.179688 173.746094 294.726562 169.707031 294.066406 C 166.183594 293.488281 162.71875 292.746094 159.320312 291.835938 C 155.101562 290.710938 150.988281 289.324219 146.988281 287.714844 C 143.429688 286.289062 139.964844 284.683594 136.601562 282.898438 C 132.308594 280.617188 128.195312 278.050781 124.269531 275.238281 C 120.636719 272.632812 117.164062 269.824219 113.882812 266.800781 C 109.402344 262.675781 105.285156 258.167969 101.550781 253.347656 C 97.632812 248.289062 94.152344 242.875 91.167969 237.164062 C 83.511719 222.53125 79.113281 205.949219 78.90625 188.371094 L 78.832031 188.371094 L 78.832031 34.933594 C 75.285156 37.464844 71.800781 40.074219 68.449219 42.839844 L 68.449219 187.039062 L 68.566406 187.039062 C 68.566406 187.019531 68.570312 187 68.570312 186.976562 C 68.570312 187.019531 68.566406 187.0625 68.566406 187.101562 C 68.566406 204.257812 72.257812 220.5625 78.832031 235.300781 C 82.210938 242.871094 86.347656 250.019531 91.167969 256.65625 C 94.34375 261.039062 97.816406 265.1875 101.550781 269.089844 C 105.394531 273.105469 109.515625 276.855469 113.882812 280.300781 C 117.210938 282.925781 120.671875 285.375 124.269531 287.640625 C 128.230469 290.132812 132.34375 292.40625 136.601562 294.425781 C 139.980469 296.027344 143.441406 297.476562 146.988281 298.761719 C 151 300.214844 155.121094 301.4375 159.320312 302.453125 C 162.726562 303.28125 166.1875 303.980469 169.707031 304.5 C 173.753906 305.105469 177.867188 305.492188 182.035156 305.675781 C 183.773438 305.753906 185.515625 305.808594 187.273438 305.808594 C 187.363281 305.808594 187.449219 305.804688 187.539062 305.804688 C 187.625 305.804688 187.710938 305.808594 187.800781 305.808594 C 189.558594 305.808594 191.300781 305.753906 193.039062 305.675781 C 197.207031 305.492188 201.320312 305.105469 205.367188 304.5 C 208.886719 303.980469 212.347656 303.28125 215.757812 302.453125 C 219.957031 301.4375 224.074219 300.214844 228.085938 298.761719 C 231.632812 297.476562 235.09375 296.027344 238.472656 294.425781 C 242.730469 292.40625 246.84375 290.132812 250.804688 287.640625 C 254.402344 285.375 257.863281 282.925781 261.191406 280.300781 C 265.558594 276.855469 269.679688 273.105469 273.523438 269.089844 C 277.257812 265.1875 280.730469 261.039062 283.90625 256.65625 C 288.726562 250.019531 292.863281 242.871094 296.242188 235.300781 C 302.820312 220.5625 306.507812 204.257812 306.507812 187.101562 C 306.507812 187.0625 306.503906 187.019531 306.503906 186.976562 C 306.503906 187 306.507812 187.019531 306.507812 187.039062 L 306.625 187.039062 L 306.625 42.839844 C 303.273438 40.074219 299.789062 37.464844 296.242188 34.933594 L 296.242188 188.371094 L 296.167969 188.371094 " fill-opacity="1" fill-rule="nonzero"/><g clip-path="url(#c2e91f82b1)"><path fill="#737373" d="M 182.34375 186.132812 L 192.730469 186.132812 L 192.730469 1.058594 L 182.34375 1.058594 L 182.34375 186.132812 " fill-opacity="1" fill-rule="nonzero"/></g></svg>